<svg width="36" height="38" viewBox="0 0 36 38" fill="none" xmlns="http://www.w3.org/2000/svg">
<path d="M31.2487 5.67942C31.2572 5.85748 31.4088 5.99474 31.5868 5.98551L33.7559 5.87298C34.0435 5.85806 34.2869 6.08298 34.2947 6.37083L34.301 6.60751C34.3059 6.78923 34.4687 6.9257 34.6485 6.89878V6.89878C34.797 6.87656 34.9067 6.74894 34.9065 6.59884L34.9055 6.04133C34.9046 5.4785 34.4168 5.04018 33.8571 5.09927L31.5363 5.34426C31.3668 5.36215 31.2407 5.50915 31.2487 5.67942V5.67942Z" fill="black" fill-opacity="0.88"/>
<path d="M33.8749 7.00601C34.6443 6.88357 35.3359 7.48962 35.3155 8.26838L35.2602 10.3832C35.2458 10.9328 34.8366 11.3915 34.2922 11.4682V11.4682C33.6536 11.5582 33.0701 11.0941 33.014 10.4516L32.8301 8.34408C32.7733 7.69298 33.2295 7.10874 33.8749 7.00601V7.00601Z" fill="black" fill-opacity="0.88"/>
<path opacity="0.3" d="M34.7749 6.87458C35.0768 6.82828 35.3468 7.06672 35.3382 7.37196V7.37196C35.3308 7.63561 35.1157 7.84594 34.852 7.84748L33.1225 7.85758C32.9339 7.85868 32.776 7.715 32.7593 7.52715V7.52715C32.7424 7.33667 32.8764 7.16582 33.0654 7.13682L34.7749 6.87458Z" fill="#5B5D5E"/>
<path d="M4.10568 5.67942C4.09725 5.85748 3.94566 5.99474 3.76764 5.98551L1.59847 5.87298C1.3109 5.85806 1.06752 6.08298 1.05975 6.37083L1.05336 6.60752C1.04846 6.78923 0.885659 6.9257 0.705879 6.89878V6.89878C0.557443 6.87656 0.447694 6.74894 0.447943 6.59885L0.448866 6.04134C0.449799 5.4785 0.937634 5.04018 1.49736 5.09927L3.81808 5.34426C3.9876 5.36215 4.11374 5.50915 4.10568 5.67942V5.67942Z" fill="black" fill-opacity="0.88"/>
<path d="M1.47975 7.00601C0.710413 6.88357 0.0188057 7.48962 0.0391713 8.26837L0.0944773 10.3832C0.108849 10.9328 0.518133 11.3915 1.06249 11.4682V11.4682C1.70113 11.5582 2.28461 11.0941 2.34068 10.4516L2.52459 8.34407C2.58141 7.69297 2.1252 7.10874 1.47975 7.00601V7.00601Z" fill="black" fill-opacity="0.88"/>
<path d="M5.59046 31.065C4.78665 31.0717 4.15909 31.762 4.22867 32.5628V32.5628C4.29058 33.2753 4.88697 33.8221 5.60208 33.8221H5.95637C6.61205 33.8221 7.17721 33.3607 7.30849 32.7183V32.7183C7.48429 31.8581 6.82271 31.0546 5.94474 31.062L5.59046 31.065Z" fill="#5B5D5E"/>
<path d="M7.38659 31.0176C7.15609 31.0176 6.97203 31.2096 6.98183 31.4399V31.4399C7.0012 31.8956 7.6421 31.9767 7.77433 31.5402V31.5402C7.85313 31.28 7.65843 31.0176 7.38659 31.0176V31.0176Z" fill="#292B29"/>
<path d="M27.7616 32.7183C27.8929 33.3607 28.4581 33.8221 29.1138 33.8221H29.468C30.183 33.8221 30.7794 33.2753 30.8414 32.5629V32.5629C30.9111 31.762 30.2834 31.0716 29.4795 31.0649L29.1253 31.0619C28.2474 31.0545 27.5858 31.8581 27.7616 32.7183V32.7183Z" fill="#5B5D5E"/>
<path d="M27.685 31.0476C27.4132 31.0476 27.2192 31.3108 27.2995 31.5705V31.5705C27.4334 32.0029 28.0685 31.9209 28.0882 31.4686V31.4686C28.0981 31.2391 27.9147 31.0476 27.685 31.0476V31.0476Z" fill="#292B29"/>
<path d="M4.03213 29.126C4.0595 30.2106 4.94658 31.0756 6.03149 31.0756H29.0691C30.1436 31.0756 31.026 30.2266 31.0676 29.153L31.9264 6.97543C31.9705 5.83479 31.0526 4.88859 29.9112 4.89812L5.46025 5.10226C4.34251 5.11159 3.44939 6.03522 3.47759 7.15265L4.03213 29.126Z" fill="black" fill-opacity="0.88"/>
<path d="M29.0691 30.5756H6.03149C5.21781 30.5756 4.5525 29.9268 4.53197 29.1134L3.97743 7.14003C3.95628 6.30196 4.62612 5.60924 5.46443 5.60224L29.9154 5.3981C30.7715 5.39095 31.4599 6.1006 31.4268 6.95609L30.568 29.1336C30.5368 29.9389 29.875 30.5756 29.0691 30.5756Z" stroke="black" stroke-opacity="0.88"/>
<path d="M5.32091 5.25019C4.26145 5.25066 3.40234 4.39193 3.40234 3.33248V3.33248C3.40234 2.6701 3.74416 2.05462 4.30646 1.70452L6.55876 0.302191C6.87597 0.104686 7.24217 0 7.61585 0H28.7443C29.2363 0 29.7111 0.181406 30.0779 0.509519L31.3563 1.65341C31.7917 2.04294 32.035 2.60334 32.0223 3.18738L32.0202 3.2827C31.9965 4.36972 31.1088 5.23872 30.0215 5.23921L5.32091 5.25019Z" fill="black" fill-opacity="0.88"/>
<path d="M8.03942 1.64502C7.07738 1.64367 6.29723 2.42406 6.29887 3.3861V3.3861C6.3005 4.34641 7.08058 5.12342 8.04088 5.12128L27.741 5.07722C28.6885 5.07511 29.452 4.29972 29.4394 3.35227V3.35227C29.427 2.42192 28.67 1.67385 27.7396 1.67255L8.03942 1.64502Z" fill="#F1F1F1" fill-opacity="0.62"/>
<path d="M6.26052 6.31133C5.13688 6.30514 4.22866 7.22559 4.24987 8.34906L4.44273 18.5621C4.46334 19.6535 5.35526 20.5267 6.44685 20.5243L28.8063 20.4742C29.8809 20.4718 30.7616 19.6205 30.8005 18.5465L31.1638 8.50975C31.2047 7.38188 30.3047 6.44364 29.1761 6.43743L6.26052 6.31133Z" fill="#313156" fill-opacity="0.52"/>
<path opacity="0.3" d="M28.4635 20.4544C29.6531 20.4502 30.5761 19.4148 30.4442 18.2326L29.5796 10.4843C29.3965 8.84343 27.4164 8.11861 26.2172 9.25349L17.9963 17.0335C16.6803 18.279 17.5661 20.4925 19.378 20.4862L28.4635 20.4544Z" fill="#091724"/>
<path opacity="0.3" d="M6.26337 6.31288C5.13864 6.30585 4.22929 7.22734 4.25125 8.35188L4.31553 11.6444C4.34994 13.4067 6.48184 14.266 7.72875 13.0202L11.0033 9.74855C12.2598 8.49313 11.3784 6.34486 9.60219 6.33375L6.26337 6.31288Z" fill="#091724"/>
<path d="M7.21653 2.38215C7.10139 2.38117 7.00764 2.47444 7.00803 2.58958L7.00933 2.97306C7.01041 3.29185 7.26694 3.55086 7.5857 3.55501L7.68036 3.55625C7.94646 3.55971 8.16066 3.77586 8.1617 4.04198L8.16278 4.31626C8.16325 4.43529 8.26043 4.53124 8.37946 4.53018V4.53018C8.49733 4.52913 8.59233 4.43328 8.59233 4.3154L8.59221 2.60617C8.5922 2.48341 8.49268 2.38389 8.36991 2.38389V2.38389C8.24755 2.38389 8.1482 2.48278 8.14762 2.60514L8.14685 2.76902C8.14591 2.96864 7.98381 3.12998 7.78418 3.12998V3.12998C7.58388 3.12998 7.42151 2.9676 7.42151 2.7673V2.58888C7.42151 2.47539 7.33001 2.38312 7.21653 2.38215V2.38215Z" fill="#F09D74"/>
<path opacity="0.3" d="M0.579831 6.87459C0.277982 6.82829 0.00794011 7.06677 0.016562 7.37202V7.37202C0.024008 7.63565 0.239059 7.84594 0.502785 7.84748L2.23221 7.85758C2.4208 7.85868 2.57872 7.715 2.59539 7.52715V7.52715C2.61229 7.33666 2.47831 7.16582 2.28929 7.13682L0.579831 6.87459Z" fill="#5B5D5E"/>
<path d="M15.0312 20.5072C15.1126 20.5075 15.1909 20.4752 15.2484 20.4175L28.6996 6.94654C28.8874 6.75839 28.7542 6.43701 28.4883 6.43701V6.43701C28.4091 6.43701 28.3332 6.46847 28.2772 6.52446L14.8162 19.9856C14.6241 20.1777 14.7595 20.5062 15.0312 20.5072V20.5072Z" fill="#494A73"/>
<path d="M17.4875 20.184C17.4871 20.3743 17.6413 20.5288 17.8317 20.5288V20.5288C18.0206 20.5288 18.1742 20.3765 18.1758 20.1875L18.2889 6.71887C18.2907 6.504 18.1171 6.3288 17.9022 6.32865V6.32865C17.6887 6.32849 17.5154 6.50131 17.515 6.71483L17.4875 20.184Z" fill="#F1F1F1" fill-opacity="0.62"/>
<path d="M11.7351 27.597C12.0208 27.5979 12.2739 27.7811 12.364 28.0522V28.0522C12.5071 28.4822 12.1875 28.9262 11.7342 28.9271L10.9335 28.9286C10.4808 28.9295 10.1586 28.4887 10.297 28.0576V28.0576C10.3859 27.7808 10.6437 27.5934 10.9344 27.5944L11.7351 27.597Z" fill="#C2BFBC"/>
<path d="M9.18265 28.9262C9.46827 28.9252 9.7214 28.742 9.81154 28.471V28.471C9.95457 28.041 9.63497 27.597 9.18176 27.5961L8.38105 27.5945C7.92827 27.5937 7.60616 28.0345 7.74456 28.4656V28.4656C7.83341 28.7424 8.09126 28.9298 8.38195 28.9288L9.18265 28.9262Z" fill="#F8F4E3"/>
<path d="M26.5523 28.9262C26.8379 28.9252 27.091 28.742 27.1812 28.471V28.471C27.3242 28.041 27.0046 27.597 26.5514 27.5961L25.7507 27.5945C25.2979 27.5937 24.9758 28.0345 25.1142 28.4656V28.4656C25.203 28.7424 25.4609 28.9298 25.7516 28.9288L26.5523 28.9262Z" fill="#F8F4E3"/>
<path d="M23.9998 27.597C24.2854 27.5979 24.5385 27.7811 24.6287 28.0522V28.0522C24.7717 28.4822 24.4521 28.9262 23.9989 28.9271L23.1982 28.9286C22.7454 28.9295 22.4233 28.4887 22.5617 28.0576V28.0576C22.6505 27.7808 22.9084 27.5934 23.1991 27.5944L23.9998 27.597Z" fill="#C2BFBC"/>
<path d="M30.4124 27.5785C30.7961 27.5749 31.1053 27.892 31.0923 28.2754V28.2754C31.0799 28.6381 30.7827 28.9259 30.4199 28.9265L29.3532 28.9285C28.8984 28.9294 28.5748 28.4866 28.7138 28.0535V28.0535C28.8022 27.7784 29.0569 27.5908 29.3458 27.5882L30.4124 27.5785Z" fill="#F09D74"/>
<path d="M5.72464 27.5743C6.01054 27.5747 6.26415 27.7579 6.35438 28.0292V28.0292C6.49731 28.4589 6.17793 28.9026 5.72504 28.9035L4.65884 28.9056C4.29654 28.9063 4.00008 28.6174 3.99142 28.2552V28.2552C3.98247 27.8807 4.28386 27.5724 4.65844 27.5729L5.72464 27.5743Z" fill="#F09D74"/>
<path d="M28.25 29.0952L25.9696 30.3905V33.4127H23.0051L21.4088 34.9238L19.8125 35.5714" stroke="#EEF2F5" stroke-width="0.8" stroke-linecap="round" stroke-dasharray="2 2"/>
<path d="M22.375 35.5714C22.375 36.7414 21.2634 37.75 19.8125 37.75C18.3616 37.75 17.25 36.7414 17.25 35.5714C17.25 34.4014 18.3616 33.3928 19.8125 33.3928C21.2634 33.3928 22.375 34.4014 22.375 35.5714Z" stroke="#EEF2F5" stroke-width="0.5"/>
<path d="M21.4375 35.5717C21.4375 36.2946 20.7457 36.9407 19.8125 36.9407C18.8793 36.9407 18.1875 36.2946 18.1875 35.5717C18.1875 34.8488 18.8793 34.2026 19.8125 34.2026C20.7457 34.2026 21.4375 34.8488 21.4375 35.5717Z" stroke="#EEF2F5" stroke-width="0.5"/>
<g clip-path="url(#clip0_298_482)">
<path d="M32 24.0357C32 26.2437 29.2236 28.8377 29.1055 28.9471C29.0029 29.0419 28.8639 29.0952 28.7188 29.0952C28.5738 29.0952 28.4347 29.0419 28.3321 28.9471C28.2139 28.8377 25.4375 26.2437 25.4375 24.0357C25.4375 23.2306 25.7832 22.4585 26.3986 21.8891C27.0139 21.3198 27.8485 21 28.7188 21C29.589 21 30.4236 21.3198 31.0389 21.8891C31.6543 22.4585 32 23.2306 32 24.0357ZM28.7188 25.5536C29.0432 25.5536 29.3604 25.4646 29.6302 25.2978C29.9 25.131 30.1103 24.8939 30.2345 24.6166C30.3587 24.3392 30.3912 24.034 30.3279 23.7396C30.2645 23.4452 30.1083 23.1747 29.8788 22.9624C29.6494 22.7502 29.3571 22.6056 29.0388 22.547C28.7206 22.4885 28.3907 22.5185 28.0909 22.6334C27.7911 22.7483 27.5349 22.9428 27.3546 23.1924C27.1743 23.4421 27.0781 23.7355 27.0781 24.0357C27.0781 24.2351 27.1205 24.4324 27.203 24.6166C27.2854 24.8008 27.4063 24.9681 27.5586 25.109C27.711 25.25 27.8918 25.3618 28.0909 25.4381C28.29 25.5143 28.5033 25.5536 28.7188 25.5536Z" fill="#EEF2F5"/>
</g>
<defs>
<clipPath id="clip0_298_482">
<rect width="6.5625" height="8.09524" fill="white" transform="translate(25.4375 21)"/>
</clipPath>
</defs>
</svg>
