<svg width="36" height="39" viewBox="0 0 36 39" fill="none" xmlns="http://www.w3.org/2000/svg">
<path d="M31.2487 5.67942C31.2572 5.85748 31.4088 5.99474 31.5868 5.98551L33.7559 5.87298C34.0435 5.85806 34.2869 6.08298 34.2947 6.37083L34.301 6.60751C34.3059 6.78923 34.4687 6.9257 34.6485 6.89878V6.89878C34.797 6.87656 34.9067 6.74894 34.9065 6.59884L34.9055 6.04133C34.9046 5.4785 34.4168 5.04018 33.8571 5.09927L31.5363 5.34426C31.3668 5.36215 31.2407 5.50915 31.2487 5.67942V5.67942Z" fill="black" fill-opacity="0.88"/>
<path d="M33.8749 7.00601C34.6443 6.88357 35.3359 7.48962 35.3155 8.26838L35.2602 10.3832C35.2458 10.9328 34.8366 11.3915 34.2922 11.4682V11.4682C33.6536 11.5582 33.0701 11.0941 33.014 10.4516L32.8301 8.34408C32.7733 7.69298 33.2295 7.10874 33.8749 7.00601V7.00601Z" fill="black" fill-opacity="0.88"/>
<path opacity="0.3" d="M34.7749 6.87458C35.0768 6.82828 35.3468 7.06672 35.3382 7.37196V7.37196C35.3308 7.63561 35.1157 7.84594 34.852 7.84748L33.1225 7.85758C32.9339 7.85868 32.776 7.715 32.7593 7.52715V7.52715C32.7424 7.33667 32.8764 7.16582 33.0654 7.13682L34.7749 6.87458Z" fill="#5B5D5E"/>
<path d="M4.10568 5.67942C4.09725 5.85748 3.94566 5.99474 3.76764 5.98551L1.59847 5.87298C1.3109 5.85806 1.06752 6.08298 1.05975 6.37083L1.05336 6.60752C1.04846 6.78923 0.885659 6.9257 0.705879 6.89878V6.89878C0.557443 6.87656 0.447694 6.74894 0.447943 6.59885L0.448866 6.04134C0.449799 5.4785 0.937634 5.04018 1.49736 5.09927L3.81808 5.34426C3.9876 5.36215 4.11374 5.50915 4.10568 5.67942V5.67942Z" fill="black" fill-opacity="0.88"/>
<path d="M1.47975 7.00601C0.710413 6.88357 0.0188057 7.48962 0.0391713 8.26837L0.0944773 10.3832C0.108849 10.9328 0.518133 11.3915 1.06249 11.4682V11.4682C1.70113 11.5582 2.28461 11.0941 2.34068 10.4516L2.52459 8.34407C2.58141 7.69297 2.1252 7.10874 1.47975 7.00601V7.00601Z" fill="black" fill-opacity="0.88"/>
<path d="M5.59046 31.065C4.78665 31.0717 4.15909 31.762 4.22867 32.5628V32.5628C4.29058 33.2753 4.88697 33.8221 5.60208 33.8221H5.95637C6.61205 33.8221 7.17721 33.3607 7.30849 32.7183V32.7183C7.48429 31.8581 6.82271 31.0546 5.94474 31.062L5.59046 31.065Z" fill="#5B5D5E"/>
<path d="M7.38659 31.0176C7.15609 31.0176 6.97203 31.2096 6.98183 31.4399V31.4399C7.0012 31.8956 7.6421 31.9767 7.77433 31.5402V31.5402C7.85313 31.28 7.65843 31.0176 7.38659 31.0176V31.0176Z" fill="#292B29"/>
<path d="M27.7616 32.7183C27.8929 33.3607 28.4581 33.8221 29.1138 33.8221H29.468C30.183 33.8221 30.7794 33.2753 30.8414 32.5629V32.5629C30.9111 31.762 30.2834 31.0716 29.4795 31.0649L29.1253 31.0619C28.2474 31.0545 27.5858 31.8581 27.7616 32.7183V32.7183Z" fill="#5B5D5E"/>
<path d="M27.685 31.0476C27.4132 31.0476 27.2192 31.3108 27.2995 31.5705V31.5705C27.4334 32.0029 28.0685 31.9209 28.0882 31.4686V31.4686C28.0981 31.2391 27.9147 31.0476 27.685 31.0476V31.0476Z" fill="#292B29"/>
<path d="M4.03213 29.126C4.0595 30.2106 4.94658 31.0756 6.03149 31.0756H29.0691C30.1436 31.0756 31.026 30.2266 31.0676 29.153L31.9264 6.97543C31.9705 5.83479 31.0526 4.88859 29.9112 4.89812L5.46025 5.10226C4.34251 5.11159 3.44939 6.03522 3.47759 7.15265L4.03213 29.126Z" fill="black" fill-opacity="0.88"/>
<path d="M29.0691 30.5756H6.03149C5.21781 30.5756 4.5525 29.9268 4.53197 29.1134L3.97743 7.14003C3.95628 6.30196 4.62612 5.60924 5.46443 5.60224L29.9154 5.3981C30.7715 5.39095 31.4599 6.1006 31.4268 6.95609L30.568 29.1336C30.5368 29.9389 29.875 30.5756 29.0691 30.5756Z" stroke="black" stroke-opacity="0.88"/>
<path d="M5.32091 5.25019C4.26145 5.25066 3.40234 4.39193 3.40234 3.33248V3.33248C3.40234 2.6701 3.74416 2.05462 4.30646 1.70452L6.55876 0.302191C6.87597 0.104686 7.24217 0 7.61585 0H28.7443C29.2363 0 29.7111 0.181406 30.0779 0.509519L31.3563 1.65341C31.7917 2.04294 32.035 2.60334 32.0223 3.18738L32.0202 3.2827C31.9965 4.36972 31.1088 5.23872 30.0215 5.23921L5.32091 5.25019Z" fill="black" fill-opacity="0.88"/>
<path d="M8.03942 1.64502C7.07738 1.64367 6.29723 2.42406 6.29887 3.3861V3.3861C6.3005 4.34641 7.08058 5.12342 8.04088 5.12128L27.741 5.07722C28.6885 5.07511 29.452 4.29972 29.4394 3.35227V3.35227C29.427 2.42192 28.67 1.67385 27.7396 1.67255L8.03942 1.64502Z" fill="#F1F1F1" fill-opacity="0.62"/>
<path d="M6.26052 6.31133C5.13688 6.30514 4.22866 7.22559 4.24987 8.34906L4.44273 18.5621C4.46334 19.6535 5.35526 20.5267 6.44685 20.5243L28.8063 20.4742C29.8809 20.4718 30.7616 19.6205 30.8005 18.5465L31.1638 8.50975C31.2047 7.38188 30.3047 6.44364 29.1761 6.43743L6.26052 6.31133Z" fill="#313156" fill-opacity="0.52"/>
<path opacity="0.3" d="M28.4635 20.4544C29.6531 20.4502 30.5761 19.4148 30.4442 18.2326L29.5796 10.4843C29.3965 8.84343 27.4164 8.11861 26.2172 9.25349L17.9963 17.0335C16.6803 18.279 17.5661 20.4925 19.378 20.4862L28.4635 20.4544Z" fill="#091724"/>
<path opacity="0.3" d="M6.26337 6.31288C5.13864 6.30585 4.22929 7.22734 4.25125 8.35188L4.31553 11.6444C4.34994 13.4067 6.48184 14.266 7.72875 13.0202L11.0033 9.74855C12.2598 8.49313 11.3784 6.34486 9.60219 6.33375L6.26337 6.31288Z" fill="#091724"/>
<path d="M7.21653 2.38215C7.10139 2.38117 7.00764 2.47444 7.00803 2.58958L7.00933 2.97306C7.01041 3.29185 7.26694 3.55086 7.5857 3.55501L7.68036 3.55625C7.94646 3.55971 8.16066 3.77586 8.1617 4.04198L8.16278 4.31626C8.16325 4.43529 8.26043 4.53124 8.37946 4.53018V4.53018C8.49733 4.52913 8.59233 4.43328 8.59233 4.3154L8.59221 2.60617C8.5922 2.48341 8.49268 2.38389 8.36991 2.38389V2.38389C8.24755 2.38389 8.1482 2.48278 8.14762 2.60514L8.14685 2.76902C8.14591 2.96864 7.98381 3.12998 7.78418 3.12998V3.12998C7.58388 3.12998 7.42151 2.9676 7.42151 2.7673V2.58888C7.42151 2.47539 7.33001 2.38312 7.21653 2.38215V2.38215Z" fill="#F09D74"/>
<path opacity="0.3" d="M0.579831 6.87459C0.277982 6.82829 0.00794011 7.06677 0.016562 7.37202V7.37202C0.024008 7.63565 0.239059 7.84594 0.502785 7.84748L2.23221 7.85758C2.4208 7.85868 2.57872 7.715 2.59539 7.52715V7.52715C2.61229 7.33666 2.47831 7.16582 2.28929 7.13682L0.579831 6.87459Z" fill="#5B5D5E"/>
<path d="M15.0312 20.5072C15.1126 20.5075 15.1909 20.4752 15.2484 20.4175L28.6996 6.94654C28.8874 6.75839 28.7542 6.43701 28.4883 6.43701V6.43701C28.4091 6.43701 28.3332 6.46847 28.2772 6.52446L14.8162 19.9856C14.6241 20.1777 14.7595 20.5062 15.0312 20.5072V20.5072Z" fill="#494A73"/>
<path d="M17.4875 20.184C17.4871 20.3743 17.6413 20.5288 17.8317 20.5288V20.5288C18.0206 20.5288 18.1742 20.3765 18.1758 20.1875L18.2889 6.71887C18.2907 6.504 18.1171 6.3288 17.9022 6.32865V6.32865C17.6887 6.32849 17.5154 6.50131 17.515 6.71483L17.4875 20.184Z" fill="#F1F1F1" fill-opacity="0.62"/>
<path d="M11.7351 27.597C12.0208 27.5979 12.2739 27.7811 12.364 28.0522V28.0522C12.5071 28.4822 12.1875 28.9262 11.7342 28.9271L10.9335 28.9286C10.4808 28.9295 10.1586 28.4887 10.297 28.0576V28.0576C10.3859 27.7808 10.6437 27.5934 10.9344 27.5944L11.7351 27.597Z" fill="#C2BFBC"/>
<path d="M9.18265 28.9262C9.46827 28.9252 9.7214 28.742 9.81154 28.471V28.471C9.95457 28.041 9.63497 27.597 9.18176 27.5961L8.38105 27.5945C7.92827 27.5937 7.60616 28.0345 7.74456 28.4656V28.4656C7.83341 28.7424 8.09126 28.9298 8.38195 28.9288L9.18265 28.9262Z" fill="#F8F4E3"/>
<path d="M26.5523 28.9262C26.8379 28.9252 27.091 28.742 27.1812 28.471V28.471C27.3242 28.041 27.0046 27.597 26.5514 27.5961L25.7507 27.5945C25.2979 27.5937 24.9758 28.0345 25.1142 28.4656V28.4656C25.203 28.7424 25.4609 28.9298 25.7516 28.9288L26.5523 28.9262Z" fill="#F8F4E3"/>
<path d="M23.9998 27.597C24.2854 27.5979 24.5385 27.7811 24.6287 28.0522V28.0522C24.7717 28.4822 24.4521 28.9262 23.9989 28.9271L23.1982 28.9286C22.7454 28.9295 22.4233 28.4887 22.5617 28.0576V28.0576C22.6505 27.7808 22.9084 27.5934 23.1991 27.5944L23.9998 27.597Z" fill="#C2BFBC"/>
<path d="M30.4124 27.5785C30.7961 27.5749 31.1053 27.892 31.0923 28.2754V28.2754C31.0799 28.6381 30.7827 28.9259 30.4199 28.9265L29.3532 28.9285C28.8984 28.9294 28.5748 28.4866 28.7138 28.0535V28.0535C28.8022 27.7784 29.0569 27.5908 29.3458 27.5882L30.4124 27.5785Z" fill="#F09D74"/>
<path d="M5.72464 27.5743C6.01054 27.5747 6.26415 27.7579 6.35438 28.0292V28.0292C6.49731 28.4589 6.17793 28.9026 5.72504 28.9035L4.65884 28.9056C4.29654 28.9063 4.00008 28.6174 3.99142 28.2552V28.2552C3.98247 27.8807 4.28386 27.5724 4.65844 27.5729L5.72464 27.5743Z" fill="#F09D74"/>
<path d="M35.9466 31.9881C35.9483 31.8498 35.9035 31.7164 35.8218 31.6166C35.7402 31.5168 35.6284 31.4587 35.5105 31.4548H31.7454C31.686 31.4544 31.6271 31.4677 31.5721 31.4942C31.5171 31.5206 31.4671 31.5596 31.425 31.6089C31.383 31.6581 31.3497 31.7167 31.3272 31.7812C31.3046 31.8456 31.2932 31.9147 31.2936 31.9844V32.5139C31.2928 32.6522 31.3384 32.7852 31.4206 32.8843C31.5028 32.9834 31.615 33.0406 31.7329 33.0435H33.6593L30.2081 37.0886C30.1253 37.1865 30.0789 37.3186 30.0789 37.4564C30.0789 37.5941 30.1253 37.7263 30.2081 37.8241L30.5218 38.1919C30.5668 38.2444 30.6201 38.2861 30.6788 38.3145C30.7374 38.3429 30.8003 38.3575 30.8638 38.3574C30.9184 38.358 30.9726 38.346 31.0232 38.322C31.0738 38.298 31.1199 38.2625 31.1587 38.2176L34.61 34.1725V36.3789C34.6096 36.4483 34.6209 36.517 34.6432 36.5813C34.6656 36.6455 34.6986 36.7039 34.7403 36.7531C34.782 36.8024 34.8316 36.8414 34.8862 36.8681C34.9409 36.8947 34.9995 36.9085 35.0587 36.9085H35.5387C35.5979 36.9104 35.6568 36.8986 35.7121 36.8738C35.7674 36.8489 35.8179 36.8115 35.8608 36.7636C35.9036 36.7157 35.938 36.6584 35.9619 36.5949C35.9858 36.5314 35.9987 36.463 35.9999 36.3936L35.9466 31.9881Z" fill="#EEF2F5"/>
<path d="M21.3954 24.6443H31.4071C31.4582 24.6448 31.5089 24.6335 31.5563 24.611C31.6036 24.5885 31.6467 24.5554 31.6832 24.5134C31.7196 24.4714 31.7486 24.4214 31.7685 24.3662C31.7885 24.3111 31.7989 24.2519 31.7993 24.192V23.7323C31.7904 23.3713 31.6626 23.0283 31.4427 22.7753C31.2227 22.5224 30.9278 22.379 30.6196 22.3754H29.6596V21.8936C29.6596 21.6566 29.5792 21.4293 29.4362 21.2617C29.2933 21.0941 29.0993 21 28.8971 21C28.6949 21 28.501 21.0941 28.358 21.2617C28.2151 21.4293 28.1347 21.6566 28.1347 21.8936V22.3643H24.6646V21.8936C24.6522 21.666 24.5663 21.4526 24.4244 21.2966C24.2825 21.1406 24.0952 21.0537 23.9007 21.0537C23.7061 21.0537 23.5188 21.1406 23.3769 21.2966C23.235 21.4526 23.1491 21.666 23.1367 21.8936V22.3643H22.1578C22.0049 22.3643 21.8536 22.3998 21.7125 22.4687C21.5715 22.5375 21.4434 22.6385 21.3358 22.7657C21.2282 22.8928 21.1431 23.0437 21.0854 23.2096C21.0278 23.3756 20.9988 23.5532 21 23.7323V24.203C21.0004 24.2629 21.0109 24.3221 21.0309 24.3773C21.0508 24.4324 21.0798 24.4824 21.1162 24.5244C21.1526 24.5664 21.1957 24.5996 21.2431 24.6221C21.2905 24.6445 21.3411 24.6558 21.3922 24.6554L21.3954 24.6443Z" fill="#EEF2F5"/>
<path d="M31.7742 29.2961V26.4314C31.775 26.3108 31.7354 26.1946 31.6638 26.1079C31.5922 26.0212 31.4943 25.971 31.3914 25.9681H21.3953C21.3442 25.9671 21.2935 25.9779 21.246 26C21.1984 26.022 21.1551 26.0548 21.1184 26.0964C21.0817 26.1381 21.0523 26.1878 21.032 26.2428C21.0117 26.2977 21.0008 26.3568 21 26.4167V33.2052C21 33.5651 21.122 33.9103 21.3391 34.1648C21.5562 34.4192 21.8507 34.5622 22.1577 34.5622H27.9621C28.0787 33.3396 28.5037 32.1856 29.1827 31.2475C29.8618 30.3095 30.764 29.6301 31.7742 29.2961ZM28.3229 28.2481C28.3213 28.1882 28.3297 28.1285 28.3477 28.0724C28.3657 28.0163 28.393 27.965 28.428 27.9213C28.4629 27.8775 28.5049 27.8423 28.5515 27.8176C28.5981 27.793 28.6483 27.7793 28.6994 27.7774H29.4619C29.5129 27.7764 29.5637 27.7872 29.6112 27.8092C29.6587 27.8313 29.7021 27.864 29.7388 27.9057C29.7755 27.9474 29.8049 27.9971 29.8252 28.0521C29.8455 28.107 29.8564 28.1661 29.8572 28.226V29.1343C29.8601 29.1942 29.853 29.2542 29.8361 29.3109C29.8193 29.3676 29.7931 29.4198 29.7589 29.4645C29.7248 29.5093 29.6835 29.5457 29.6374 29.5717C29.5913 29.5977 29.5412 29.6128 29.4901 29.6161H28.6994C28.5965 29.6161 28.4977 29.5687 28.4243 29.484C28.3509 29.3994 28.3089 29.2844 28.3073 29.1638L28.3229 28.2481ZM24.4858 32.2932C24.4858 32.3533 24.4756 32.4127 24.4558 32.468C24.436 32.5234 24.407 32.5736 24.3705 32.6157C24.334 32.6578 24.2907 32.691 24.2432 32.7133C24.1956 32.7356 24.1448 32.7465 24.0936 32.7456H23.3123C23.2613 32.746 23.2106 32.7347 23.1632 32.7123C23.1159 32.6898 23.0727 32.6566 23.0363 32.6146C22.9999 32.5726 22.9709 32.5226 22.951 32.4675C22.931 32.4123 22.9206 32.3531 22.9202 32.2932V31.3886C22.9201 31.2679 22.9606 31.1521 23.0328 31.0661C23.105 30.9801 23.2031 30.9308 23.3061 30.9289H24.0779C24.1808 30.9279 24.28 30.9744 24.354 31.0583C24.4279 31.1423 24.4708 31.2569 24.4732 31.3776L24.4858 32.2932ZM24.4858 29.1527C24.4866 29.2126 24.4774 29.2721 24.4586 29.3278C24.4398 29.3835 24.4118 29.4343 24.3763 29.4773C24.3407 29.5204 24.2983 29.5548 24.2514 29.5786C24.2045 29.6024 24.1541 29.6151 24.103 29.6161H23.3123C23.2094 29.6161 23.1106 29.5687 23.0372 29.484C22.9638 29.3994 22.9218 29.2844 22.9202 29.1638V28.2481C22.9185 28.1882 22.9269 28.1285 22.9449 28.0724C22.9629 28.0163 22.9902 27.965 23.0252 27.9213C23.0601 27.8775 23.1021 27.8423 23.1487 27.8176C23.1953 27.793 23.2456 27.7793 23.2967 27.7774H24.0779C24.129 27.7764 24.1797 27.7872 24.2273 27.8092C24.2748 27.8313 24.3181 27.864 24.3548 27.9057C24.3916 27.9474 24.4209 27.9971 24.4412 28.0521C24.4615 28.107 24.4724 28.1661 24.4732 28.226L24.4858 29.1527ZM27.1652 32.2932C27.1661 32.4139 27.1264 32.5301 27.0548 32.6168C26.9832 32.7035 26.8853 32.7537 26.7824 32.7566H25.9949C25.9438 32.7576 25.8931 32.7467 25.8455 32.7247C25.798 32.7027 25.7547 32.6699 25.718 32.6282C25.6812 32.5866 25.6519 32.5369 25.6316 32.4819C25.6113 32.4269 25.6004 32.3678 25.5996 32.3079V31.3886C25.5992 31.3287 25.6088 31.2693 25.628 31.2138C25.6472 31.1583 25.6755 31.1078 25.7113 31.0651C25.7471 31.0224 25.7898 30.9884 25.8369 30.965C25.8839 30.9417 25.9344 30.9294 25.9855 30.9289H26.7573C26.8603 30.9289 26.9591 30.9763 27.0324 31.0609C27.1058 31.1456 27.1479 31.2606 27.1495 31.3812L27.1652 32.2932ZM26.7573 29.6161H25.9949C25.892 29.6171 25.7928 29.5706 25.7188 29.4867C25.6449 29.4027 25.6021 29.2881 25.5996 29.1674V28.2481C25.5979 28.1882 25.6063 28.1285 25.6243 28.0724C25.6424 28.0163 25.6696 27.965 25.7046 27.9213C25.7396 27.8775 25.7815 27.8423 25.8281 27.8176C25.8747 27.793 25.925 27.7793 25.9761 27.7774H26.7573C26.8084 27.7769 26.8591 27.7882 26.9064 27.8107C26.9538 27.8331 26.9969 27.8663 27.0333 27.9083C27.0698 27.9503 27.0988 28.0003 27.1187 28.0555C27.1386 28.1106 27.1491 28.1698 27.1495 28.2297V29.1343C27.1525 29.1942 27.1453 29.2542 27.1285 29.3109C27.1116 29.3676 27.0854 29.4198 27.0513 29.4645C27.0172 29.5093 26.9759 29.5457 26.9297 29.5717C26.8836 29.5977 26.8335 29.6128 26.7824 29.6161H26.7573Z" fill="#EEF2F5"/>
</svg>
